<svg xmlns="http://www.w3.org/2000/svg" width="989" height="212" version="1.1" viewBox="0 0 989 212"><g id="ZOOMIN_primary_logotype" fill="#E46D4E" fill-rule="evenodd" stroke="none" stroke-width="1"><path id="Fill-1" d="M269.993 136.195c0 13.576-3.536 24.051-10.51 31.135-6.973 7.08-15.594 10.669-25.626 10.669-10.034 0-18.657-3.589-25.627-10.669-6.973-7.081-10.509-17.557-10.509-31.135 0-13.575 3.536-24.05 10.509-31.134 6.975-7.081 15.596-10.671 25.627-10.671 10.027 0 18.649 3.59 25.626 10.671 6.974 7.086 10.51 17.562 10.51 31.134Zm.085-66.734c-11.386-6.02-24.393-9.072-38.661-9.072-14.267 0-27.274 3.052-38.661 9.072-11.407 6.035-20.503 14.894-27.04 26.329-6.53 11.425-9.841 25.019-9.841 40.405 0 15.392 3.312 28.94 9.842 40.276 6.537 11.347 15.632 20.205 27.034 26.324C204.13 208.902 217.14 212 231.417 212c14.277 0 27.286-3.098 38.666-9.205 11.397-6.118 20.491-14.974 27.031-26.324 6.533-11.34 9.845-24.891 9.845-40.276 0-15.381-3.311-28.976-9.842-40.405-6.54-11.438-15.637-20.296-27.039-26.329Z"/><path id="Fill-2" d="M438.171 136.195c0 13.576-3.538 24.051-10.513 31.135-6.972 7.08-15.593 10.669-25.625 10.669-10.036 0-18.657-3.589-25.626-10.669-6.975-7.081-10.511-17.555-10.511-31.135 0-13.575 3.536-24.05 10.511-31.134 6.973-7.081 15.595-10.671 25.626-10.671 10.027 0 18.649 3.59 25.625 10.671 6.975 7.086 10.513 17.562 10.513 31.134Zm2.524-66.734c-11.387-6.02-24.394-9.072-38.662-9.072s-27.275 3.052-38.661 9.072c-11.408 6.035-20.505 14.894-27.039 26.329-6.532 11.424-9.843 25.019-9.843 40.405 0 15.392 3.313 28.943 9.844 40.276 6.535 11.347 15.63 20.205 27.033 26.324 11.379 6.107 24.388 9.205 38.666 9.205 14.278 0 27.287-3.098 38.667-9.205 11.396-6.115 20.49-14.972 27.03-26.324 6.534-11.342 9.846-24.891 9.846-40.276 0-15.379-3.312-28.973-9.843-40.405-6.54-11.439-15.637-20.297-27.038-26.329Z"/><path id="Fill-3" d="M685.273 60.126c-11.34 0-21.72 3.021-30.851 8.982-8.571 5.595-15.234 13.13-19.826 22.416-4.422-9.779-10.844-17.447-19.115-22.813-8.786-5.698-19.254-8.585-31.111-8.585-11.159 0-21.092 2.662-29.519 7.915-7.28 4.537-12.94 10.77-16.868 18.566V62.233h-38.881v147.922h38.881v-78.441c0-12.187 3.008-21.559 8.947-27.854 5.927-6.284 14.012-9.47 24.034-9.47 9.677 0 17.366 2.965 22.856 8.808 5.5 5.863 8.288 14.392 8.288 25.349v81.608h38.617v-78.441c0-12.18 3.012-21.551 8.95-27.854 5.924-6.284 14.012-9.47 24.039-9.47 9.672 0 17.359 2.965 22.85 8.808 5.504 5.868 8.294 14.396 8.294 25.349v81.608h38.617v-85.826c0-20.361-5.254-36.319-15.619-47.433-10.383-11.128-24.709-16.77-42.583-16.77"/><path id="Fill-4" d="M774.226 210.155h38.884V62.233h-38.884z"/><path id="Fill-5" d="M973.428 77.04c-10.12-11.224-23.874-16.914-40.883-16.914-11.686 0-22.149 2.841-31.102 8.444-7.737 4.845-13.658 11.392-17.647 19.501V62.233h-38.884v147.922h38.884v-78.441c0-12.539 3.103-22.269 9.22-28.917 6.093-6.628 14.354-9.989 24.551-9.989 10.019 0 18.014 3.141 23.766 9.332 5.767 6.219 8.691 15.102 8.691 26.407v81.608h38.619v-85.826c0-20.181-5.118-36.091-15.215-47.289"/><path id="Fill-6" d="M774.409 41.887h38.701V.109h-38.701z"/><path id="Fill-7" d="m144.148 146.648-38.86.047c-5.741 26.861-24.282 31.009-32.767 31.009-6.892 0-17.802-3.624-21.688-7.014L114.6 97.241a.527.527 0 0 0 .074-.194l.001-34.352H6.526v34.449h58.609L0 174.137c.412.824.853 1.617 1.323 2.411 6.614 11.464 15.727 20.224 27.368 26.309 6.673 3.499 13.875 5.997 21.547 7.467C55.912 211.441 61.88 212 68.111 212c6.232 0 12.2-.559 17.874-1.676 7.643-1.47 14.786-3.968 21.43-7.467a71.22 71.22 0 0 0 9.906-6.231c7.114-5.322 12.703-11.739 17.289-19.72 3.852-6.7 7.643-17.803 9.538-30.258"/></g></svg>